<?xml version="1.0" encoding="UTF-8"?>
<svg id="Layer_1" xmlns="http://www.w3.org/2000/svg" viewBox="0 0 1074.26 1048">
  <defs>
    <style>
      .cls-1 {
        fill: #27354a;
      }

      .cls-2 {
        fill: #758196;
      }

      .cls-3 {
        fill: #101825;
      }
    </style>
  </defs>
  <path class="cls-1" d="M719.88,92.48c98.23,0,196.46-.15,294.69.07,46.28.1,62.96,25.23,45.28,67.79-63.87,153.81-127.83,307.57-191.82,461.33-16.44,39.5-22.58,43.44-66.5,43.52-64.33.11-128.67.81-192.98-.09-25.44-.36-40.17,9.91-49.1,33.48-22.75,60.02-47.74,119.21-69.78,179.47-7.74,21.16-16.94,23.39-36.29,15.37-94.28-39.12-169.26-101.53-226.75-185.28-5.58-8.13-9.95-19.02-10.06-28.68-.83-71.76,54.81-127.19,126.43-127.15,79.98.05,159.96-.47,239.92.71,21.83.32,33.38-7.3,40.29-27.84,11.05-32.85,24.73-64.8,36.57-97.39,7.59-20.89,22.02-33.68,43.45-36.4,21.54-2.73,35.53,10,46.42,27.4,12.9,20.6,26.21,40.96,40.02,60.95,15.09,21.86,26.61,21.29,36.58-2.18,13.56-31.91,26.49-64.12,38.7-96.57,10.76-28.61.37-43.66-29.79-43.82-80.84-.43-161.73.84-242.51-1.48-20.2-.58-42.81-8.12-59.59-19.46-49.63-33.51-96.93-70.48-145.1-106.16-28.59-21.18-38.17-47.43-28.25-76.97,8.91-26.55,31.33-40.49,65.49-40.5,98.23-.04,196.46-.01,294.69-.01v-.1Z"/>
  <path class="cls-2" d="M1013.5,339.88c3.62-.42,5.96,1.13,6.72,3.71,12.23,41.16,30.34,94.44,37.67,134.72,23.93,131.48,6.04,256.81-72.02,367.86-96.94,137.91-234.04,200.39-400.53,196.99-281.72-5.74-519.68-227.14-567.85-489.86-8.67-47.31-8.99-97.8-8.59-145.02.27-32.03,23.28-51.74,53.92-50.18,29.29,1.49,51.19,25.73,47.86,56.73-23.61,219.81,137.04,463.29,388.36,531.64,211.83,57.62,421.36-45.28,492.12-241.8,32.84-91.21,33.19-183.96,6.97-276.33-8.38-29.54-6.64-39.33,3.36-63.83,7-19,7.79-24.08,12-24.62Z"/>
  <path class="cls-3" d="M392.73,488.27c-46.87,0-93.73.17-140.6-.06-32.56-.16-42.41-7.89-46.71-39.23-11.65-84.99-23.38-169.98-32.79-255.23-1.3-11.79,7.25-29.79,16.96-36.09,8.21-5.33,28.16-2.28,37.04,4.62,112.97,87.87,225.15,176.76,336.51,266.66,8.66,6.99,16.53,26.96,12.59,34.68-5.66,11.09-22.2,22.56-34.66,23.22-49.33,2.61-98.88,1.07-148.35,1.07,0,.12,0,.24,0,.37Z"/>
  <path class="cls-1" d="M379.67,1044.42c-84.04,0-171.83,1.11-255.83-.61-29.01-.59-45.94-26.71-36.47-53.6,13.25-37.65,29.36-74.3,46.41-116.31.91-2.24,3.81-2.82,5.51-1.09,70.38,71.57,147.24,127.84,237.47,164.41.09.03.18.07.27.09,8.96,2.73,8.28,7.1,2.64,7.1Z"/>
  <path class="cls-2" d="M333.24,41.56C471.47-12.2,605.97-.03,737.46,62c3.54,1.75,6.29,9.25.79,9.33-7.75-.08-33.16-.08-35.75-.08-5.25,0-11-3-16.62-5.33-115.45-47.93-232.2-58.13-352.64-24.35Z"/>
</svg>